<?xml version="1.0" encoding="UTF-8"?>
<svg version="1.1" viewBox="0 0 632 92" xml:space="preserve" xmlns="http://www.w3.org/2000/svg">
  <style>.st1{fill:#164194}.st2{fill:#fff}.st3{fill:#413000}</style>
  <path d="M162.1 65.1c1.1-1.1 1.8-2.6 1.8-4.2V31c0-1.5-.6-3.1-1.8-4.2-1.1-1.1-2.7-1.8-4.2-1.8-1.6 0-3.1.6-4.2 1.8S152 29.4 152 31v30c0 1.6.6 3.2 1.7 4.2 1.1 1.1 2.6 1.7 4.2 1.7s3.1-.6 4.2-1.8zM265 60.9V31c0-3.2-2.7-6-6-6s-6 2.7-6 6v30c0 3.3 2.6 6 6 6 3.3-.1 6-2.8 6-6.1z" fill="none"/>
  <path class="st1" d="M299.7 35.2c-1.2-1.3-1.8-2.9-1.6-4.6.2-1.7 1-3.3 2.3-4.3 1.4-1 3.1-1.5 4.8-1 1.7.3 3.1 1.4 4 2.8.7 1.4 2.3 2.3 4 2.3.8 0 1.5-.2 2.2-.6 1-.6 1.9-1.6 2.2-2.8.3-1.2.2-2.4-.5-3.5-2.1-3.7-5.7-6.3-10-7.2-3.4-.7-7.1-.2-10.2 1.5l-.7.6c-2.4 1.1-4.4 3.9-4.5 4.1l-.6 1.1c-1.1 1.9-1.8 4.1-1.9 6.3-.3 3.2.5 6.4 2.3 9.1l.7 1c.3.4 15.2 15.7 15.2 15.7 1.2 1.2 1.9 3.1 1.8 4.9-.2 1.9-1 3.5-2.6 4.6-1.4 1-3.3 1.5-5.1 1.1-1.1-.2-2.2-.7-3-1.5l-.6-.6-.5-.6c-.1-.1-.1-.2-.2-.2-.8-1.5-2.3-2.3-4-2.3-.8 0-1.6.2-2.3.6-2.1 1.3-2.8 3.9-1.7 6.1l.1.1c2.3 3.8 6 6.5 10.3 7.3 1 .2 2 .3 3 .3 3.3 0 6.7-1.1 9.4-3.1 3.5-2.6 5.7-6.7 6.1-11.1.3-4.4-1.3-8.8-4.4-12l-14-14.1zm-26.4 25.6V31.1c0-8.3-6.8-15-15-15-8.3 0-15 6.8-15 15v29.8c0 8.3 6.8 15 15 15 8.3-.1 15-6.8 15-15.1zm-20.9 0V31.1c0-3.3 2.7-6 6-6 3.2 0 6 2.7 6 6v29.8c0 3.3-2.7 6-6 6-3.4-.1-6-2.7-6-6.1zm-52.9-42.3c-.8-1.5-2.4-2.5-4.1-2.5-.3 0-.6 0-.9.1-2.1.4-3.6 2.3-3.6 4.4v1l24.9 51.8c.8 1.5 2.4 2.5 4 2.5.4 0 .7-.1 1-.2 2.1-.4 3.6-2.3 3.6-4.4v-1c.1.1-24.2-50.3-24.9-51.7zm24.9 2.1c0-2.6-2-4.5-4.5-4.5-2.6 0-4.5 2-4.5 4.5v24.6l9 18.8V20.6zm-33.5 50.7c0 2.6 2 4.5 4.5 4.5 2.6 0 4.5-2 4.5-4.5V46.7l-9-18.8v43.4zm-23.4.2c2.8-2.8 4.4-6.6 4.4-10.7V31.1c0-4-1.5-7.8-4.4-10.7-2.8-2.8-6.6-4.4-10.7-4.4s-7.7 1.5-10.7 4.4c-2.8 2.8-4.4 6.6-4.4 10.7v29.8c0 4 1.5 7.8 4.4 10.7 2.8 2.8 6.6 4.4 10.7 4.4 4-.2 7.8-1.7 10.7-4.5zm-16.6-10.7V31.1c0-1.6.6-3.1 1.8-4.2 1.1-1.1 2.6-1.8 4.2-1.8 1.5 0 3.1.6 4.2 1.8 1.1 1.1 1.8 2.7 1.8 4.2v29.8c0 1.6-.6 3.1-1.8 4.2-1.1 1.1-2.6 1.8-4.2 1.8s-3.1-.6-4.2-1.7c-1.2-1.2-1.8-2.8-1.8-4.4zM122.8 20c0-.2-.1-.2-.1-.3-.6-2.2-2.5-3.6-4.8-3.6-2.7 0-4.9 2.2-4.9 4.8v49.9c0 2.8 2.2 5 4.9 5 2.8 0 5-2.2 5-5V21c0-.2 0-.5-.1-.8V20z"/>
  <path class="st2" d="M0 0v92h92V0H0zm90.5 90.5h-89v-89h89v89z"/>
  <path class="st1" d="M1 90h89V1H1v89zm62.1-65.6h15.1v41.9h-8.4V31.1h-6.7v-6.7zm-24.8 18c-3.8-4.9-4.5-6.5-4.5-9.6 0-5.2 4.4-8.9 10.6-8.9 5.8 0 9.9 3.9 9.9 9.2 0 3.9-1.6 6.7-6.5 10.8l7.2 9.8c.6-.6 1.1-3.9 1.1-6.6 0-.3-.1-1.3-.2-2.3h6.7c0 .9.1 2.2.1 2.5 0 5.3-.8 8.6-3.4 11.8l5.4 7.1h-8.2l-1.9-2.5c-3.1 2.4-5.8 3.3-10.1 3.3-8.4-.1-14.3-4.4-14.8-12-.3-4.5 2.8-9.3 8.6-12.6zm-28.8-18h15.1v41.9h-8.4V31.1H9.5v-6.7z"/>
  <path class="st1" d="M45.2 60c2.6 0 4.4-1 5.8-2.1l-7.9-10.3c-3.7 2.4-5.2 4.8-5.1 7 .1 3.3 3 5.4 7.2 5.4zm3.2-27c0-1.8-1.3-3-3.4-3-2 0-3.5 1.3-3.5 3.1 0 1.7.5 2.6 2.9 5.6 3-2 4-3.8 4-5.7z"/>
  <path class="st2" d="M69.7 66.2H78V24.5H63v6.7h6.7v35zm-25 .8c4.3 0 6.9-.9 10-3.3l1.8 2.5h8.2l-5.3-7c2.5-3.2 3.4-6.5 3.4-11.8 0-.3-.1-1.6-.1-2.5H56c.1 1.1.2 1.9.2 2.3.1 2.7-.4 6-1 6.5L48 43.9c4.8-4 6.4-7 6.4-10.8 0-5.3-4.1-9.1-9.8-9.1-6.2 0-10.5 3.8-10.5 8.9 0 3 .8 4.7 4.5 9.5-5.8 3.4-8.8 8.1-8.5 12.6.5 7.6 6.3 11.9 14.6 12zm-.1-37c2.1 0 3.4 1.2 3.4 3.1 0 1.9-1 3.8-3.9 5.8-2.4-3.1-2.9-4-2.9-5.7-.1-1.9 1.4-3.2 3.4-3.2zm-2 17.8l7.9 10.5c-1.5 1.2-3.2 2.2-5.8 2.2-4.2 0-7.1-2.2-7.2-5.7 0-2.2 1.5-4.6 5.1-7zm-26 18.4H25V24.5H10v6.7h6.6v35z"/>
  <g transform="translate(416 1)">
    <path class="st3" d="M129 30.5c-4.8 0-8.3 2.3-8.3 7.9 0 4.2 2.3 7.1 8 7.1 4.8 0 8.1-2.8 8.1-7.3 0-5.1-2.9-7.7-7.8-7.7zm-9.6 39.4c-1.1 1.4-2.2 2.8-2.2 4.5 0 3.4 4.4 4.5 10.5 4.5 5 0 11.8-.3 11.8-5 0-2.7-3.3-2.9-7.4-3.2l-12.7-.8zM145 30.7c1.6 2 3.2 4.7 3.2 8.7 0 9.5-7.5 15.1-18.4 15.1-2.8 0-5.3-.3-6.8-.8l-2.9 4.5 8.5.5c15 .9 23.8 1.4 23.8 12.8 0 9.9-8.7 15.4-23.8 15.4C113 87 107 83.1 107 76.3c0-3.9 1.7-5.9 4.8-8.7-2.9-1.2-3.8-3.3-3.8-5.7 0-1.9.9-3.6 2.5-5.2s3.3-3.3 5.4-5.1c-4.2-2.1-7.4-6.5-7.4-12.9 0-9.9 6.6-16.6 19.8-16.6 3.7 0 6 .3 8 .9H153v7.3l-8 .4"/>
    <path class="st3" d="M168.3 15.3c-5 0-7.9-2.8-7.9-7.7s2.9-7.6 7.9-7.6c5.1 0 8 2.7 8 7.6 0 4.9-2.9 7.7-8 7.7zM157 67v-6.8l4.5-.6c1.2-.2 1.4-.4 1.4-1.7V32.6c0-.9-.3-1.5-1.1-1.8l-4.7-1.6 1-7h18.2v35.7c0 1.4.1 1.5 1.4 1.7l4.5.6V67H157"/>
    <path class="st3" d="M216 63.6c-3.7 1.8-9.2 3.4-14.1 3.4-10.3 0-14.2-4.1-14.2-13.9V30.6c0-.5 0-.9-.7-.9h-6V22c7.6-.9 10.6-4.7 11.6-14h8.2v12.2c0 .6 0 .9.7.9h12.2v8.6h-12.9v20.6c0 5.1 1.2 7.1 5.9 7.1 2.4 0 4.9-.6 7-1.4l2.3 7.6"/>
    <path d="m88.3 41-39.3-39.3c-2.3-2.3-5.9-2.3-8.2 0l-8.2 8.2 10.4 10.3c2.4-0.8 5.2-0.3 7.1 1.6s2.5 4.7 1.6 7.1l10 10c2.4-0.8 5.2-0.3 7.1 1.6 2.7 2.7 2.7 7.1 0 9.8s-7.1 2.7-9.8 0c-2-2-2.5-5-1.5-7.5l-9.3-9.3v24.5c0.7 0.3 1.3 0.8 1.8 1.3 2.7 2.7 2.7 7.1 0 9.8s-7.1 2.7-9.8 0-2.7-7.1 0-9.8c0.7-0.7 1.4-1.2 2.3-1.5v-24.7c-0.8-0.3-1.6-0.8-2.3-1.5-2-2-2.5-5-1.5-7.5l-10.1-10.2-26.9 26.9c-2.3 2.3-2.3 5.9 0 8.2l39.3 39.3c2.3 2.3 5.9 2.3 8.2 0l39.1-39.1c2.3-2.3 2.3-5.9 0-8.2" fill="#f05133"/>
  </g>
  <path d="M363 50.7h-13.5v-6.9H363V30.4h6.9v13.5h13.4v6.9h-13.4v13.4H363V50.7z"/>
</svg>
